<svg width="182" height="29" viewBox="0 0 182 29" fill="none" xmlns="http://www.w3.org/2000/svg">
<path d="M19.118 0.783203C18.2449 0.783203 17.3894 0.864014 16.5616 1.01775C23.0009 2.2181 27.8752 7.867 27.8752 14.6532C27.8752 19.49 23.9549 23.4104 19.118 23.4104C14.2812 23.4104 10.3608 19.49 10.3608 14.6532C10.3608 10.723 12.9488 7.3979 16.5143 6.29019L16.5222 6.26457C15.7259 6.02608 14.8804 5.89796 14.0052 5.89796C9.16838 5.89796 5.24805 9.81829 5.24805 14.6551C5.24805 22.3164 11.4587 28.5251 19.118 28.5251C26.7793 28.5251 32.988 22.3145 32.988 14.6551C32.988 6.99384 26.7773 0.783203 19.118 0.783203Z" fill="#0B0B2C"/>
<path d="M14.0409 0.783752C6.38154 0.783752 0.170898 6.99439 0.170898 14.6537C0.170898 22.315 6.38154 28.5237 14.0409 28.5237C14.914 28.5237 15.7694 28.4429 16.5973 28.2891C10.158 27.0888 5.28369 21.4399 5.28369 14.6537C5.28369 9.81687 9.20402 5.89654 14.0409 5.89654C18.8777 5.89654 22.798 9.81687 22.798 14.6537C22.798 18.5839 20.2101 21.909 16.6446 23.0167L16.6367 23.0423C17.433 23.2808 18.2785 23.4089 19.1537 23.4089C23.9905 23.4089 27.9108 19.4886 27.9108 14.6518C27.9128 6.99439 21.7022 0.783752 14.0409 0.783752Z" fill="#E7B400"/>
<path d="M59.2647 16.9315C59.0738 17.7429 58.7516 18.5304 58.2982 19.2941C57.8447 20.0339 57.2839 20.7021 56.6157 21.2988C55.9475 21.8715 55.1838 22.3369 54.3247 22.6948C53.4656 23.0289 52.5468 23.196 51.5683 23.196C50.4467 23.196 49.3847 22.9812 48.3824 22.5517C47.4039 22.0982 46.5328 21.4897 45.7692 20.726C45.0294 19.9623 44.4327 19.0793 43.9793 18.077C43.5497 17.0508 43.335 15.953 43.335 14.7837C43.335 13.6143 43.5497 12.5284 43.9793 11.5261C44.4327 10.4999 45.0294 9.60501 45.7692 8.84134C46.5328 8.07767 47.4039 7.48105 48.3824 7.05148C49.3847 6.59805 50.4467 6.37134 51.5683 6.37134C52.5468 6.37134 53.4656 6.55032 54.3247 6.9083C55.1838 7.2424 55.9475 7.70776 56.6157 8.30438C57.2839 8.87714 57.8447 9.54535 58.2982 10.309C58.7516 11.0488 59.0738 11.8244 59.2647 12.6358H55.148C54.9571 12.2063 54.6946 11.8244 54.3605 11.4903C54.0741 11.204 53.7042 10.9414 53.2508 10.7028C52.7973 10.4403 52.2365 10.309 51.5683 10.309C50.3989 10.309 49.4205 10.7147 48.6329 11.5261C47.8454 12.3375 47.4516 13.4234 47.4516 14.7837C47.4516 16.144 47.8454 17.2298 48.6329 18.0412C49.4205 18.8526 50.3989 19.2583 51.5683 19.2583C52.2365 19.2583 52.7973 19.139 53.2508 18.9003C53.7042 18.6617 54.0741 18.3992 54.3605 18.1128C54.6946 17.7787 54.9571 17.3849 55.148 16.9315H59.2647Z" fill="#0B0B2C"/>
<path d="M66.0662 14.7837C66.0662 16.144 66.4599 17.2298 67.2475 18.0412C68.035 18.8526 69.0135 19.2583 70.1828 19.2583C71.3522 19.2583 72.3307 18.8526 73.1182 18.0412C73.9057 17.2298 74.2995 16.144 74.2995 14.7837C74.2995 13.4234 73.9057 12.3375 73.1182 11.5261C72.3307 10.7147 71.3522 10.309 70.1828 10.309C69.0135 10.309 68.035 10.7147 67.2475 11.5261C66.4599 12.3375 66.0662 13.4234 66.0662 14.7837ZM78.4162 14.7837C78.4162 15.953 78.1895 17.0508 77.736 18.077C77.3065 19.0793 76.7098 19.9623 75.9462 20.726C75.2064 21.4897 74.3353 22.0982 73.333 22.5517C72.3545 22.9812 71.3045 23.196 70.1828 23.196C69.0612 23.196 67.9992 22.9812 66.9969 22.5517C66.0184 22.0982 65.1474 21.4897 64.3837 20.726C63.6439 19.9623 63.0473 19.0793 62.5938 18.077C62.1643 17.0508 61.9495 15.953 61.9495 14.7837C61.9495 13.6143 62.1643 12.5284 62.5938 11.5261C63.0473 10.4999 63.6439 9.60501 64.3837 8.84134C65.1474 8.07767 66.0184 7.48105 66.9969 7.05148C67.9992 6.59805 69.0612 6.37134 70.1828 6.37134C71.3045 6.37134 72.3545 6.59805 73.333 7.05148C74.3353 7.48105 75.2064 8.07767 75.9462 8.84134C76.7098 9.60501 77.3065 10.4999 77.736 11.5261C78.1895 12.5284 78.4162 13.6143 78.4162 14.7837Z" fill="#0B0B2C"/>
<path d="M89.8545 6.37134C90.6898 6.37134 91.4057 6.49066 92.0023 6.72931C92.5989 6.94409 93.0882 7.18274 93.47 7.44525C93.8996 7.75549 94.2456 8.11347 94.5081 8.51917C94.8899 8.11347 95.3314 7.75549 95.8326 7.44525C96.2622 7.18274 96.7753 6.94409 97.3719 6.72931C97.9685 6.49066 98.6248 6.37134 99.3407 6.37134C101.131 6.37134 102.562 6.94409 103.636 8.0896C104.71 9.23511 105.247 10.9295 105.247 13.1728V23.017H101.131V13.5308C101.131 12.5284 100.856 11.7409 100.307 11.1682C99.7822 10.5954 99.1617 10.309 98.4458 10.309C97.7299 10.309 97.0974 10.5954 96.5485 11.1682C96.0235 11.7409 95.761 12.5284 95.761 13.5308V23.017H91.6443V13.5308C91.6443 12.5284 91.3699 11.7409 90.821 11.1682C90.296 10.5954 89.6755 10.309 88.9596 10.309C88.2436 10.309 87.6112 10.5954 87.0623 11.1682C86.5373 11.7409 86.2748 12.5284 86.2748 13.5308V23.017H82.1581V6.55032H85.2009L85.9168 8.1612C86.2509 7.82709 86.6208 7.52878 87.0265 7.26627C87.3606 7.05148 87.7663 6.84863 88.2436 6.65772C88.7209 6.4668 89.2579 6.37134 89.8545 6.37134Z" fill="#0B0B2C"/>
<path d="M118.134 6.37134C119.16 6.37134 120.139 6.58612 121.07 7.01569C122 7.42139 122.812 8.00608 123.504 8.76975C124.22 9.50956 124.781 10.3926 125.186 11.4187C125.616 12.4449 125.831 13.5666 125.831 14.7837C125.831 16.0008 125.616 17.1224 125.186 18.1486C124.781 19.1748 124.22 20.0697 123.504 20.8334C122.812 21.5732 122 22.1579 121.07 22.5874C120.139 22.9931 119.16 23.196 118.134 23.196C117.442 23.196 116.834 23.1125 116.309 22.9454C115.807 22.7784 115.366 22.5994 114.984 22.4085C114.555 22.1698 114.173 21.8954 113.839 21.5851V28.7446H109.722V6.55032H112.765L113.481 8.1612C113.839 7.82709 114.256 7.52878 114.734 7.26627C115.139 7.05148 115.628 6.84863 116.201 6.65772C116.774 6.4668 117.418 6.37134 118.134 6.37134ZM113.481 14.7837C113.481 16.144 113.874 17.2298 114.662 18.0412C115.449 18.8526 116.428 19.2583 117.597 19.2583C118.767 19.2583 119.745 18.8526 120.533 18.0412C121.32 17.2298 121.714 16.144 121.714 14.7837C121.714 13.4234 121.32 12.3375 120.533 11.5261C119.745 10.7147 118.767 10.309 117.597 10.309C116.428 10.309 115.449 10.7147 114.662 11.5261C113.874 12.3375 113.481 13.4234 113.481 14.7837Z" fill="#0B0B2C"/>
<path d="M136.396 6.37134C137.327 6.37134 138.186 6.53839 138.974 6.8725C139.761 7.18274 140.441 7.62424 141.014 8.19699C141.587 8.76975 142.028 9.44989 142.339 10.2374C142.673 11.025 142.84 11.8841 142.84 12.8148V23.017H139.797L139.081 21.4061C138.699 21.7402 138.282 22.0386 137.828 22.3011C137.423 22.5397 136.933 22.7545 136.361 22.9454C135.788 23.1125 135.143 23.196 134.428 23.196C132.638 23.196 131.265 22.7664 130.311 21.9073C129.356 21.0243 128.879 19.9027 128.879 18.5424C128.879 17.731 129.034 16.9912 129.344 16.3229C129.678 15.6309 130.227 15.0462 130.991 14.5689C131.755 14.0677 132.757 13.6859 133.998 13.4234C135.263 13.137 136.838 12.9938 138.723 12.9938C138.723 12.0869 138.473 11.3829 137.971 10.8818C137.494 10.3806 136.85 10.13 136.038 10.13C135.49 10.13 135.048 10.2255 134.714 10.4164C134.404 10.6073 134.153 10.8102 133.962 11.025C133.747 11.2875 133.604 11.5858 133.533 11.9199H129.416C129.511 11.1562 129.726 10.4403 130.06 9.77207C130.418 9.10385 130.896 8.51917 131.492 8.01801C132.089 7.51685 132.793 7.12308 133.604 6.8367C134.439 6.52646 135.37 6.37134 136.396 6.37134ZM135.143 19.9743C136.217 19.9743 137.077 19.664 137.721 19.0435C138.389 18.3992 138.723 17.5758 138.723 16.5735V15.8576C137.506 15.8576 136.528 15.9172 135.788 16.0366C135.048 16.132 134.463 16.2871 134.034 16.5019C133.628 16.6928 133.354 16.9315 133.21 17.2179C133.067 17.5043 132.996 17.8264 132.996 18.1844C132.996 18.6378 133.198 19.0555 133.604 19.4373C134.01 19.7953 134.523 19.9743 135.143 19.9743Z" fill="#0B0B2C"/>
<path d="M155.713 6.37134C156.691 6.37134 157.586 6.53839 158.398 6.8725C159.209 7.18274 159.901 7.6481 160.474 8.26859C161.07 8.86521 161.524 9.59308 161.834 10.4522C162.168 11.3113 162.335 12.2779 162.335 13.3518V23.017H158.219V13.8887C158.219 12.8148 157.896 11.9557 157.252 11.3113C156.632 10.6431 155.82 10.309 154.818 10.309C153.816 10.309 152.992 10.6431 152.348 11.3113C151.727 11.9557 151.417 12.8148 151.417 13.8887V23.017H147.301V6.55032H150.343L151.059 8.1612C151.465 7.82709 151.906 7.52878 152.384 7.26627C152.789 7.05148 153.267 6.84863 153.816 6.65772C154.388 6.4668 155.021 6.37134 155.713 6.37134Z" fill="#0B0B2C"/>
<path d="M165.034 6.55032H169.33L173.446 17.2895L177.205 6.55032H181.501C180.331 9.55728 179.269 12.2779 178.315 14.7121C177.909 15.7621 177.503 16.7883 177.098 17.7906C176.716 18.7929 176.37 19.7117 176.06 20.547C175.749 21.3584 175.487 22.0386 175.272 22.5874C175.057 23.1363 174.926 23.4585 174.878 23.554C174.473 24.5324 174.067 25.3558 173.661 26.024C173.279 26.716 172.862 27.2769 172.408 27.7064C171.955 28.136 171.466 28.4462 170.941 28.6372C170.416 28.8281 169.819 28.9235 169.151 28.9235C168.96 28.9235 168.769 28.9116 168.578 28.8877C168.411 28.8877 168.268 28.8758 168.148 28.8519C167.981 28.8281 167.838 28.7923 167.719 28.7446V25.3438C168.626 25.3438 169.318 25.141 169.795 24.7353C170.296 24.3296 170.678 23.8165 170.941 23.196L171.299 22.3011L165.034 6.55032Z" fill="#0B0B2C"/>
</svg>
