<svg width="193" height="28" viewBox="0 0 193 28" fill="none" xmlns="http://www.w3.org/2000/svg">
<path d="M67.7725 21.2281C66.2364 21.2281 64.8821 20.8946 63.7098 20.2276C62.5375 19.5605 61.6077 18.6308 60.9204 17.4382C60.2534 16.2457 59.9199 14.8813 59.9199 13.3452C59.9199 11.809 60.2534 10.4446 60.9204 9.25209C61.6077 8.05954 62.5375 7.12976 63.7098 6.46274C64.8821 5.79573 66.2364 5.46222 67.7725 5.46222C69.6927 5.46222 71.3097 5.96754 72.6236 6.97817C73.9374 7.96859 74.7762 9.34305 75.14 11.1015H71.047C70.8449 10.3739 70.4406 9.80794 69.8342 9.40368C69.2481 8.97922 68.5507 8.76699 67.7422 8.76699C66.6709 8.76699 65.7614 9.17124 65.0135 9.97974C64.2656 10.7883 63.8917 11.9101 63.8917 13.3452C63.8917 14.7802 64.2656 15.9021 65.0135 16.7106C65.7614 17.5191 66.6709 17.9233 67.7422 17.9233C68.5507 17.9233 69.2481 17.7212 69.8342 17.3169C70.4406 16.9127 70.8449 16.3366 71.047 15.5888H75.14C74.7762 17.2866 73.9374 18.651 72.6236 19.6818C71.3097 20.7127 69.6927 21.2281 67.7725 21.2281Z" fill="#0B0B2C"/>
<path d="M85.1941 21.2281C83.7388 21.2281 82.425 20.8946 81.2526 20.2276C80.1005 19.5605 79.1808 18.6409 78.4936 17.4685C77.8266 16.276 77.4931 14.9015 77.4931 13.3452C77.4931 11.7888 77.8367 10.4244 78.5239 9.25209C79.2112 8.05954 80.1308 7.12976 81.2829 6.46274C82.4553 5.79573 83.7691 5.46222 85.2244 5.46222C86.6595 5.46222 87.9531 5.79573 89.1052 6.46274C90.2776 7.12976 91.1973 8.05954 91.8643 9.25209C92.5515 10.4244 92.8951 11.7888 92.8951 13.3452C92.8951 14.9015 92.5515 16.276 91.8643 17.4685C91.1973 18.6409 90.2776 19.5605 89.1052 20.2276C87.9329 20.8946 86.6292 21.2281 85.1941 21.2281ZM85.1941 17.8627C86.2047 17.8627 87.084 17.4887 87.8318 16.7409C88.5797 15.9728 88.9536 14.8409 88.9536 13.3452C88.9536 11.8494 88.5797 10.7276 87.8318 9.97974C87.084 9.21166 86.2148 8.82762 85.2244 8.82762C84.1936 8.82762 83.3042 9.21166 82.5563 9.97974C81.8287 10.7276 81.4649 11.8494 81.4649 13.3452C81.4649 14.8409 81.8287 15.9728 82.5563 16.7409C83.3042 17.4887 84.1835 17.8627 85.1941 17.8627Z" fill="#0B0B2C"/>
<path d="M95.7586 20.8643V5.82605H99.1846L99.5182 7.85742C100.003 7.12976 100.64 6.5537 101.428 6.12924C102.237 5.68456 103.167 5.46222 104.218 5.46222C106.542 5.46222 108.189 6.36168 109.16 8.16061C109.705 7.33189 110.433 6.67498 111.343 6.18987C112.272 5.70477 113.283 5.46222 114.374 5.46222C116.335 5.46222 117.841 6.04839 118.892 7.22072C119.943 8.39305 120.469 10.1111 120.469 12.3749V20.8643H116.588V12.7388C116.588 11.4452 116.335 10.4547 115.83 9.76751C115.345 9.08028 114.587 8.73667 113.556 8.73667C112.505 8.73667 111.656 9.12071 111.009 9.88879C110.382 10.6569 110.069 11.7281 110.069 13.1026V20.8643H106.188V12.7388C106.188 11.4452 105.936 10.4547 105.43 9.76751C104.925 9.08028 104.147 8.73667 103.096 8.73667C102.065 8.73667 101.226 9.12071 100.579 9.88879C99.9527 10.6569 99.6394 11.7281 99.6394 13.1026V20.8643H95.7586Z" fill="#0B0B2C"/>
<path d="M123.547 27.5344V5.82605H127.003L127.427 7.97869C127.913 7.31167 128.549 6.72551 129.338 6.22019C130.146 5.71488 131.187 5.46222 132.46 5.46222C133.875 5.46222 135.139 5.80583 136.25 6.49306C137.362 7.18029 138.241 8.12018 138.888 9.31273C139.535 10.5053 139.858 11.8595 139.858 13.3755C139.858 14.8914 139.535 16.2457 138.888 17.4382C138.241 18.6105 137.362 19.5403 136.25 20.2276C135.139 20.8946 133.875 21.2281 132.46 21.2281C131.329 21.2281 130.338 21.0158 129.489 20.5914C128.64 20.1669 127.953 19.5706 127.427 18.8026V27.5344H123.547ZM131.642 17.8324C132.875 17.8324 133.896 17.418 134.704 16.5893C135.513 15.7606 135.917 14.6893 135.917 13.3755C135.917 12.0616 135.513 10.9803 134.704 10.1313C133.896 9.28241 132.875 8.85794 131.642 8.85794C130.389 8.85794 129.358 9.28241 128.549 10.1313C127.761 10.9601 127.367 12.0313 127.367 13.3452C127.367 14.659 127.761 15.7403 128.549 16.5893C129.358 17.418 130.389 17.8324 131.642 17.8324Z" fill="#0B0B2C"/>
<path d="M147.903 21.2281C146.61 21.2281 145.548 21.026 144.72 20.6217C143.891 20.1972 143.274 19.6414 142.87 18.9542C142.466 18.2669 142.264 17.509 142.264 16.6802C142.264 15.2856 142.81 14.1537 143.901 13.2845C144.993 12.4154 146.63 11.9808 148.813 11.9808H152.633V11.617C152.633 10.5861 152.34 9.82815 151.754 9.34305C151.168 8.85794 150.44 8.61539 149.571 8.61539C148.782 8.61539 148.095 8.80741 147.509 9.19145C146.923 9.55528 146.559 10.101 146.418 10.8287H142.628C142.729 9.73719 143.093 8.7872 143.719 7.97869C144.366 7.17019 145.195 6.5537 146.205 6.12924C147.216 5.68456 148.348 5.46222 149.601 5.46222C151.744 5.46222 153.431 5.99785 154.664 7.06912C155.897 8.14039 156.514 9.65634 156.514 11.617V20.8643H153.209L152.845 18.4387C152.401 19.2472 151.774 19.9143 150.965 20.4398C150.177 20.9653 149.156 21.2281 147.903 21.2281ZM148.782 18.1962C149.894 18.1962 150.753 17.8324 151.36 17.1047C151.986 16.377 152.38 15.4776 152.542 14.4063H149.237C148.206 14.4063 147.469 14.5983 147.024 14.9824C146.579 15.3462 146.357 15.801 146.357 16.3467C146.357 16.9329 146.579 17.3877 147.024 17.7111C147.469 18.0345 148.055 18.1962 148.782 18.1962Z" fill="#0B0B2C"/>
<path d="M159.611 20.8643V5.82605H163.037L163.34 8.37284C163.805 7.48348 164.472 6.77604 165.341 6.25051C166.23 5.72498 167.271 5.46222 168.464 5.46222C170.324 5.46222 171.769 6.04839 172.8 7.22072C173.83 8.39305 174.346 10.1111 174.346 12.3749V20.8643H170.465V12.7388C170.465 11.4452 170.202 10.4547 169.677 9.76751C169.151 9.08028 168.333 8.73667 167.221 8.73667C166.129 8.73667 165.23 9.12071 164.522 9.88879C163.835 10.6569 163.492 11.7281 163.492 13.1026V20.8643H159.611Z" fill="#0B0B2C"/>
<path d="M178.827 27.5344L182.314 19.8637H181.404L175.552 5.82605H179.767L183.981 16.4074L188.377 5.82605H192.501L182.95 27.5344H178.827Z" fill="#0B0B2C"/>
<path d="M15.6026 25.0062C14.6355 25.9732 13.0673 25.9718 12.1019 25.0032L2.24283 15.1102C1.27981 14.1439 1.28115 12.5802 2.24582 11.6155L12.1049 1.75644C13.0696 0.791768 14.6332 0.790427 15.5996 1.75345L25.4925 11.6125C26.4612 12.5779 26.4626 14.1462 25.4955 15.1132L15.6026 25.0062Z" fill="#E7B400"/>
<path d="M28.996 25.0016C28.0307 25.9703 26.4624 25.9716 25.4954 25.0046L15.6024 15.1116C14.6354 14.1446 14.6367 12.5763 15.6054 11.611L25.4984 1.75186C26.4647 0.788839 28.0284 0.79018 28.993 1.75486L38.8521 11.614C39.8168 12.5786 39.8181 14.1423 38.8551 15.1086L28.996 25.0016Z" fill="#0B0B2C"/>
<path d="M38.9247 25.0035C37.9585 25.9711 36.3904 25.9711 35.4243 25.0035L25.5465 15.1102C24.5813 14.1435 24.5827 12.5774 25.5495 11.6123L35.4273 1.75297C36.3927 0.789294 37.9562 0.789296 38.9217 1.75297L48.7994 11.6123C49.7662 12.5774 49.7676 14.1435 48.8024 15.1102L38.9247 25.0035Z" fill="#E7B400"/>
</svg>
