<svg width="229" height="31" viewBox="0 0 229 31" fill="none" xmlns="http://www.w3.org/2000/svg">
<g clip-path="url(#clip0_464_203)">
<path d="M127.837 0V31H126.022V0H127.837Z" fill="#201000"/>
<path d="M157.292 24.7299C158.767 24.7299 160.369 23.3006 160.369 21.6129C160.369 18.8367 157.115 18.4494 155.278 17.7212C152.039 16.4575 149.179 13.414 149.179 9.27294C149.183 6.92681 149.964 4.66961 151.364 2.95579C152.763 1.24197 154.678 0.198804 156.723 0.0363275C158.767 -0.126149 160.79 0.604128 162.383 2.08013C163.976 3.55612 165.021 5.66823 165.309 7.99119L160.007 9.27294C160.005 8.45481 159.719 7.67119 159.212 7.09444C158.705 6.51769 158.019 6.19507 157.304 6.19754C156.589 6.20002 155.905 6.52739 155.401 7.10764C154.897 7.68789 154.615 8.47349 154.617 9.29161C154.617 12.031 157.647 12.7592 159.492 13.3857C162.843 14.4927 165.8 17.4164 165.8 21.6496C165.8 26.7772 161.78 30.9176 157.308 30.9176C155.918 30.909 154.55 30.5219 153.316 29.7884C152.083 29.0548 151.02 27.9958 150.214 26.6989C149.523 25.5809 149.066 24.2947 148.881 22.9412L154.183 21.6498C154.183 23.3465 155.794 24.7301 157.292 24.7301" fill="#201000"/>
<path d="M210.291 0.013855V6.11948H216.938V30.9183H222.354V6.11948H229V0.013855H210.291Z" fill="#201000"/>
<path d="M179.541 14.2295L182.322 21.5742H176.74L179.541 14.2295ZM167.216 30.9182H173.076L174.902 26.2212H184.147L185.972 30.9182H191.85L179.533 0.013916L167.216 30.9182Z" fill="#201000"/>
<path d="M195.518 0.013855V30.9183H211.765V24.7183H200.933V0.013855H195.518Z" fill="#201000"/>
<path d="M222.204 0.0133057H210.291V6.11973H222.204V0.0133057Z" fill="#201000"/>
<path d="M188.197 21.5748H174.641V26.2206H188.197V21.5748Z" fill="#201000"/>
<path d="M16.584 22.2791H9.47656V30.4151H16.584V22.2791Z" fill="#201000"/>
<path d="M21.4934 11.431H9.47754V19.567H23.6922V11.431H21.4934Z" fill="#201000"/>
<path d="M30.7994 0.583069H9.47754V8.71891H30.7994V0.583069Z" fill="#201000"/>
<path d="M7.10745 11.4313H0V19.567H7.10745V11.4313Z" fill="#201000"/>
<path d="M37.9043 30.4169H43.4144V18.093H54.0149V12.8924H43.4144V5.78362H55.1601V0.583069H37.9043V30.4169Z" fill="#201000"/>
<path d="M57.874 5.78362H65.853V30.4169H71.2994V5.78362H79.2784V0.583069H57.874V5.78362Z" fill="#201000"/>
<path d="M87.9693 0.583069H81.7211L89.7256 15.5L81.5684 30.4169H87.8802L93.2251 20.2344H93.4287L98.7734 30.4169H105.111L96.9792 15.5L104.933 0.583069H98.7097L93.4286 10.7511H93.225L87.9693 0.583069Z" fill="#201000"/>
<path d="M210.291 0.0134888V6.11991H216.856L222.204 0.0134888H210.291Z" fill="#201000"/>
<path d="M195.518 0.0134888L195.518 0.0138853V30.9175L200.933 24.7183V0.0146783L200.932 0.0134888H195.518Z" fill="#201000"/>
<path d="M174.641 24.4673V26.2206H184.146L188.196 21.5864L175.884 21.5749L174.641 24.4673Z" fill="#201000"/>
<path d="M159.708 23.4373C159.403 23.8297 159.032 24.1468 158.616 24.3692C158.201 24.5916 157.75 24.7145 157.292 24.7305C155.793 24.7305 154.182 23.3469 154.182 21.6502L148.881 22.9415C149.066 24.2949 149.522 25.5808 150.214 26.6983C151.019 27.9956 152.083 29.0548 153.316 29.7885C154.55 30.5222 155.918 30.9092 157.308 30.9176C161.779 30.9176 165.799 26.7778 165.799 21.6502C165.802 20.2269 165.447 18.8327 164.776 17.6345L159.708 23.4373Z" fill="#201000"/>
</g>
<defs>
<clipPath id="clip0_464_203">
<rect width="229" height="31" fill="white"/>
</clipPath>
</defs>
</svg>
