<svg width="87" height="81" viewBox="0 0 87 81" fill="none" xmlns="http://www.w3.org/2000/svg">
<path d="M15.9091 0L26.1714 23.2113L24.8796 23.7114L14.3958 0H0V26.1283H11.9942L1.79912 3.07852L3.09384 2.58107L13.5075 26.1283H27.9734V0H15.9091Z" fill="#201000"/>
<path d="M3.13025 72.2983V70.9908H12.8629V54.8716H0V80.9999H27.9734V72.2983H3.13025Z" fill="#201000"/>
<path d="M69.1012 45.1048L70.3958 44.6048L74.3556 53.5642H87L82.6562 43.5368C87.2437 41.2814 87.3166 34.5201 84.6179 31.0353C82.5217 28.3344 78.9907 27.4254 75.569 27.4411C73.9857 27.4411 72.4024 27.4411 70.8218 27.4411H59.0518V35.4968H77.7549V36.7991H59.0518V53.5642H72.8479L69.1012 45.1048Z" fill="#201000"/>
<path d="M59.0264 0V8.87093H77.6342V10.1758H66.7245V26.1283H80.7561V8.91H86.9998V0H59.0264Z" fill="#201000"/>
<path d="M57.6256 19.1249V10.1758H32.4995V8.87093H57.6256V0H29.3721V26.1283H42.4003V20.4297H32.5023V19.1249H57.6256Z" fill="#201000"/>
<path d="M24.6694 39.7395C25.5231 39.0941 26.2074 38.2765 26.6702 37.3486C27.8192 35.0202 27.511 32.0276 25.7231 30.056C23.9575 28.1234 21.3793 27.5765 18.79 27.4515H0V53.5225H12.8573V40.3959H14.2585V53.5225C15.0992 53.5225 15.9204 53.5225 16.7527 53.5538C19.7119 53.6215 22.9684 53.4001 25.3727 51.6004C29.2624 48.6886 28.5927 42.3492 24.6694 39.7395ZM14.2585 39.0858H12.8573V29.5611H14.2585V39.0858Z" fill="#201000"/>
<path d="M51.7603 72.2983H48.6328V70.9908H51.7603V62.9377H57.6256V54.8716H29.3721V62.9273H38.8188V64.2348H35.6942V72.2983H29.3721V80.9999H57.6256V72.2983H51.7603Z" fill="#201000"/>
<path d="M74.9327 54.8716L85.1978 78.0829L83.9059 78.5804L73.4222 54.8716H59.0264V80.9999H71.0206L60.8256 57.9501L62.1202 57.45L72.5338 80.9999H86.9998V54.8716H74.9327Z" fill="#201000"/>
<path d="M32.5023 45.5084V44.2009H57.6256V36.799H32.5023V35.4915H57.6256V27.4358H29.3721V53.5641H57.6256V45.5084H32.5023Z" fill="#201000"/>
</svg>
