<svg width="1251" height="1216" viewBox="0 0 1251 1216" fill="none" xmlns="http://www.w3.org/2000/svg">
<path d="M695.951 357.415C696.576 356.332 697.732 355.665 698.982 355.665L961.487 355.665C962.737 355.665 963.892 356.332 964.518 357.415L1095.77 584.75C1096.4 585.833 1096.4 587.167 1095.77 588.25L964.518 815.586C963.892 816.669 962.737 817.336 961.487 817.336L698.982 817.336C697.732 817.336 696.576 816.669 695.951 815.586L564.699 588.25C564.073 587.167 564.073 585.833 564.699 584.75L695.951 357.415Z" stroke="#E7B400" stroke-opacity="0.39"/>
<path d="M1126.82 121.873C1127.44 120.79 1128.6 120.123 1129.85 120.123L1392.35 120.123C1393.61 120.123 1394.76 120.79 1395.39 121.873L1526.64 349.209C1527.26 350.292 1527.26 351.626 1526.64 352.709L1395.39 580.045C1394.76 581.128 1393.61 581.795 1392.35 581.795L1129.85 581.795C1128.6 581.795 1127.44 581.128 1126.82 580.045L995.567 352.709C994.942 351.626 994.942 350.292 995.567 349.209L1126.82 121.873Z" stroke="#E7B400" stroke-opacity="0.39"/>
<path d="M1115.33 621.68C1115.95 620.597 1117.11 619.93 1118.36 619.93L1380.86 619.93C1382.11 619.93 1383.27 620.597 1383.9 621.68L1515.15 849.016C1515.77 850.099 1515.77 851.433 1515.15 852.516L1383.9 1079.85C1383.27 1080.93 1382.11 1081.6 1380.86 1081.6L1118.36 1081.6C1117.11 1081.6 1115.95 1080.93 1115.33 1079.85L984.077 852.516C983.451 851.433 983.451 850.099 984.077 849.016L1115.33 621.68Z" stroke="#E7B400" stroke-opacity="0.39"/>
<path d="M695.951 -130.902C696.576 -131.985 697.732 -132.652 698.982 -132.652L961.487 -132.652C962.737 -132.652 963.892 -131.985 964.518 -130.902L1095.77 96.4334C1096.4 97.5163 1096.4 98.8505 1095.77 99.9334L964.518 327.269C963.892 328.352 962.737 329.019 961.487 329.019L698.982 329.019C697.732 329.019 696.576 328.352 695.951 327.269L564.699 99.9334C564.073 98.8505 564.073 97.5163 564.699 96.4334L695.951 -130.902Z" stroke="#E7B400" stroke-opacity="0.39"/>
<path d="M1115.33 -372.188C1115.95 -373.271 1117.11 -373.938 1118.36 -373.938L1380.86 -373.938C1382.11 -373.938 1383.27 -373.271 1383.9 -372.188L1515.15 -144.853C1515.77 -143.77 1515.77 -142.435 1515.15 -141.353L1383.9 85.9831C1383.27 87.066 1382.11 87.7331 1380.86 87.7331L1118.36 87.7331C1117.11 87.7331 1115.95 87.0661 1115.33 85.9832L984.077 -141.353C983.451 -142.435 983.451 -143.77 984.077 -144.853L1115.33 -372.188Z" stroke="#E7B400" stroke-opacity="0.39"/>
<path d="M230.614 -372.188C231.239 -373.271 232.395 -373.938 233.645 -373.938L496.15 -373.938C497.4 -373.938 498.556 -373.271 499.181 -372.188L630.433 -144.853C631.058 -143.77 631.058 -142.435 630.433 -141.353L499.181 85.9831C498.556 87.066 497.4 87.7331 496.15 87.7331L233.645 87.7331C232.395 87.7331 231.239 87.0661 230.614 85.9832L99.3617 -141.353C98.7364 -142.435 98.7365 -143.77 99.3617 -144.853L230.614 -372.188Z" stroke="#E7B400" stroke-opacity="0.39"/>
</svg>
