<svg width="720" height="1086" viewBox="0 0 720 1086" fill="none" xmlns="http://www.w3.org/2000/svg">
<g clip-path="url(#clip0_118_645)">
<g opacity="0.05">
<path d="M309.305 365.186L309.302 365.196L309.299 365.206L304.44 383.344L304.436 383.356C304.162 384.428 303.431 385.374 302.331 385.875L253.449 408.197C251.622 409.032 249.563 409.204 247.627 408.685L160.278 385.279C158.342 384.76 156.644 383.582 155.48 381.946L124.308 338.173C123.606 337.188 123.446 336.004 123.745 334.938L123.747 334.927L128.633 316.699C128.915 315.644 129.64 314.715 130.728 314.219L179.608 291.897C181.436 291.063 183.494 290.891 185.431 291.41L272.779 314.815C274.717 315.334 276.413 316.513 277.578 318.149L308.75 361.921C309.458 362.916 309.614 364.113 309.305 365.186Z" fill="black" stroke="black" stroke-width="2"/>
<path d="M216.165 92.4665V92.4666L229.508 105.81L229.517 105.818C230.308 106.592 230.762 107.698 230.646 108.901V108.902L225.537 162.396C225.346 164.395 224.465 166.264 223.048 167.682L159.104 231.628C157.686 233.045 155.817 233.926 153.818 234.117L100.325 239.226H100.324C99.1207 239.342 98.0155 238.887 97.2413 238.097L97.2331 238.089L83.9424 224.798L83.9366 224.792L83.9307 224.787C83.1325 224.012 82.6736 222.902 82.7892 221.692L87.8991 168.198C88.0902 166.197 88.9702 164.328 90.3879 162.911L154.332 98.9653C155.749 97.5475 157.618 96.6676 159.618 96.4764L213.111 91.3664C214.299 91.2528 215.393 91.694 216.165 92.4665Z" fill="black" stroke="black" stroke-width="2"/>
<path d="M345.751 279.707L345.308 278.713L345.306 278.714L338.056 262.476L338.05 262.466C337.589 261.46 337.56 260.265 338.098 259.183V259.182L361.989 211.047C362.881 209.247 364.371 207.817 366.202 206.999L448.776 170.131C450.606 169.313 452.666 169.159 454.601 169.695L506.388 184.041C507.555 184.364 508.424 185.183 508.864 186.198L508.87 186.209L516.496 203.292L516.504 203.308L516.512 203.324C517.008 204.345 517.052 205.574 516.501 206.685L492.61 254.82C491.718 256.62 490.228 258.05 488.397 258.868L405.824 295.736C403.993 296.554 401.934 296.708 399.998 296.172L348.211 281.826C347.06 281.507 346.196 280.704 345.751 279.707Z" fill="black" stroke="black" stroke-width="2"/>
<path d="M361.681 501.269L361.672 501.261C360.863 500.506 360.382 499.412 360.468 498.206L364.268 444.603V444.602C364.41 442.599 365.244 440.709 366.626 439.258L428.988 373.766C430.37 372.316 432.217 371.389 434.211 371.15L487.564 364.733C488.765 364.589 489.88 365.015 490.674 365.787L490.683 365.795L504.295 378.759L504.302 378.764L504.307 378.77C505.123 379.523 505.608 380.622 505.522 381.834L501.722 435.437C501.58 437.442 500.746 439.33 499.364 440.782L437.003 506.273C435.619 507.725 433.773 508.651 431.779 508.89L378.427 515.307C377.241 515.449 376.137 515.036 375.347 514.282L374.601 515.066L375.347 514.282L361.681 501.269Z" fill="black" stroke="black" stroke-width="2"/>
<path d="M532.18 575.995L532.183 575.985L532.185 575.975L537.045 557.837H537.046L537.048 557.826C537.323 556.754 538.054 555.808 539.154 555.307V555.305L588.035 532.984C589.862 532.15 591.921 531.977 593.857 532.496L681.207 555.902C683.143 556.421 684.84 557.599 686.004 559.236L717.176 603.008C717.879 603.993 718.038 605.178 717.74 606.243L717.738 606.254L712.853 624.483C712.57 625.537 711.844 626.466 710.758 626.962L661.876 649.284C660.049 650.119 657.991 650.29 656.054 649.771L568.705 626.366C566.768 625.847 565.071 624.668 563.906 623.032L532.734 579.259C532.026 578.266 531.87 577.068 532.18 575.995Z" fill="black" stroke="black" stroke-width="2"/>
<path d="M450.796 696.467L450.212 697.384L450.214 697.385L440.66 712.385L440.655 712.394C440.069 713.334 439.089 714.017 437.889 714.164L384.558 720.757C382.564 721.004 380.549 720.548 378.858 719.472L302.587 670.886C300.896 669.809 299.632 668.176 299.013 666.264L282.444 615.145C282.07 613.994 282.274 612.817 282.879 611.89L282.884 611.881L292.933 596.107L292.943 596.091L292.951 596.075C293.529 595.097 294.531 594.381 295.763 594.229L349.094 587.637C351.088 587.39 353.102 587.844 354.793 588.922L431.064 637.507C432.755 638.584 434.019 640.218 434.638 642.129L451.208 693.248C451.576 694.384 451.382 695.546 450.796 696.467Z" fill="black" stroke="black" stroke-width="2"/>
<path d="M148.779 468.25H148.792C149.9 468.233 151.006 468.69 151.781 469.623L152.616 468.929L151.781 469.623L186.101 510.973C187.384 512.518 188.088 514.46 188.093 516.465L188.331 606.897C188.337 608.903 187.643 610.848 186.368 612.4L152.265 653.929C151.507 654.853 150.424 655.316 149.332 655.32L130.461 655.369H130.45C129.343 655.384 128.239 654.926 127.468 653.996L127.467 653.995L93.1463 612.645H93.1462C91.8632 611.1 91.1591 609.158 91.1539 607.153L90.916 516.721C90.9107 514.716 91.6046 512.77 92.8794 511.218H92.8795L126.983 469.688C127.75 468.753 128.851 468.29 129.958 468.298V468.299H129.969L148.779 468.25Z" fill="black" stroke="black" stroke-width="2"/>
<path d="M296.349 778.506L305.159 795.194L305.165 795.204C305.692 796.177 305.8 797.367 305.334 798.484L284.659 848.085H284.658C283.886 849.939 282.493 851.465 280.72 852.4L200.748 894.617C198.976 895.553 196.93 895.842 194.963 895.434L142.347 884.523H142.346C141.162 884.279 140.24 883.519 139.734 882.535L139.729 882.524L130.976 865.942L130.969 865.931L130.963 865.919C130.414 864.938 130.296 863.727 130.768 862.593L151.443 812.993C152.216 811.138 153.608 809.612 155.382 808.677L235.353 766.46C237.126 765.524 239.171 765.235 241.139 765.642L293.755 776.553C294.925 776.795 295.839 777.54 296.349 778.506Z" fill="black" stroke="black" stroke-width="2"/>
<path d="M602.507 939.969H602.506C601.438 940.198 600.28 939.975 599.344 939.234L557.202 905.891C555.626 904.645 554.534 902.892 554.114 900.93L535.148 812.509C534.727 810.549 535.003 808.502 535.928 806.72L560.689 759.026C561.245 757.954 562.224 757.273 563.306 757.052H563.307L563.317 757.05L581.723 753.101L581.735 753.099C582.814 752.854 583.988 753.074 584.936 753.824H584.937L627.08 787.166C628.654 788.413 629.746 790.167 630.166 792.127L649.132 880.548C649.553 882.509 649.278 884.557 648.352 886.339L623.591 934.033C623.034 935.106 622.054 935.788 620.969 936.008L620.958 936.01L602.507 939.969Z" fill="black" stroke="black" stroke-width="2"/>
<path d="M333.993 1030.64L326.519 1013.31C325.942 1012.02 325.923 1010.48 326.632 1009.09L351.131 961.262C352.159 959.251 353.856 957.661 355.931 956.767L438.963 920.944C441.034 920.049 443.358 919.905 445.528 920.537L497.129 935.536C497.831 935.739 498.447 936.084 498.962 936.527C499.538 937.028 499.987 937.653 500.277 938.346L507.725 955.615C508.304 956.912 508.328 958.455 507.616 959.844L483.121 1007.67C482.089 1009.68 480.391 1011.27 478.317 1012.17L395.287 1047.99C393.214 1048.89 390.892 1049.03 388.72 1048.4L337.118 1033.4C335.645 1032.97 334.547 1031.92 333.993 1030.64Z" fill="black"/>
<path d="M164.59 1084.85L150.137 1072.72C149.046 1071.82 148.337 1070.45 148.351 1068.89L148.799 1015.16C148.819 1012.9 149.622 1010.72 151.073 1008.99L209.229 939.734C210.682 938.006 212.69 936.837 214.915 936.427L267.763 926.696C269.293 926.413 270.764 926.875 271.839 927.798L286.232 939.886C287.337 940.786 288.052 942.158 288.038 943.721L287.588 997.456C287.567 999.717 286.763 1001.9 285.313 1003.63L227.157 1072.88C225.704 1074.61 223.696 1075.78 221.47 1076.19L168.623 1085.92C167.112 1086.2 165.662 1085.75 164.59 1084.85Z" fill="black"/>
</g>
<path d="M235.947 297.561L236.173 297.879L236.549 297.98L254.942 302.908L250.338 320.087L250.336 320.098C250.06 321.17 249.33 322.116 248.23 322.618L199.348 344.94C197.522 345.775 195.463 345.946 193.527 345.427L106.177 322.022C104.241 321.503 102.544 320.324 101.379 318.689L101.379 318.688L70.2073 274.915H70.2071C69.5053 273.93 69.3458 272.747 69.6436 271.68L69.6465 271.669L74.2496 254.491L92.6409 259.418L93.018 259.519L93.3731 259.357L120.609 246.919C122.435 246.085 124.494 245.914 126.431 246.432L213.78 269.838C215.716 270.356 217.414 271.535 218.578 273.171H218.579L235.947 297.561Z" fill="#111111" stroke="#111111" stroke-width="2"/>
<path d="M255.535 298.033C257.316 300.534 256.375 304.048 253.582 305.325L204.7 327.646C202.643 328.586 200.327 328.78 198.145 328.196L110.797 304.789C108.616 304.205 106.706 302.879 105.395 301.037L74.2227 257.265C72.4412 254.763 73.3829 251.248 76.1766 249.972L125.058 227.651C127.115 226.711 129.431 226.518 131.613 227.102L218.961 250.508C221.143 251.092 223.052 252.418 224.364 254.26L255.535 298.033Z" fill="#E7B400"/>
<path fill-rule="evenodd" clip-rule="evenodd" d="M203.797 325.671L252.679 303.349C254.231 302.64 254.756 300.683 253.766 299.293L222.594 255.521C221.575 254.089 220.091 253.059 218.399 252.606L131.05 229.2C129.357 228.746 127.559 228.896 125.96 229.626L77.0787 251.949C75.5263 252.657 75.0019 254.615 75.9919 256.005L107.164 299.777C108.183 301.209 109.666 302.238 111.358 302.692L198.707 326.098C200.4 326.55 202.199 326.401 203.797 325.671ZM253.582 305.325C256.375 304.048 257.316 300.534 255.535 298.033L224.364 254.26C223.052 252.418 221.143 251.092 218.961 250.508L131.613 227.102C129.431 226.518 127.115 226.711 125.058 227.651L76.1766 249.972C73.3829 251.248 72.4412 254.763 74.2227 257.265L105.395 301.037C106.706 302.879 108.616 304.205 110.797 304.789L198.145 328.196C200.327 328.78 202.643 328.586 204.7 327.646L253.582 305.325Z" fill="#111111"/>
<path d="M148.698 43.75L149.087 43.7128L149.363 43.4368L162.827 29.973L175.402 42.5487L175.41 42.5568C176.2 43.3311 176.654 44.4363 176.539 45.6401V45.6406L171.43 99.1349V99.1351C171.239 101.134 170.358 103.004 168.941 104.421L104.997 168.367C103.58 169.784 101.71 170.665 99.7112 170.855H99.7111L46.218 175.966H46.2176C45.0138 176.081 43.9086 175.627 43.1343 174.836H43.1344L43.1262 174.828L30.5508 162.252L44.0142 148.789L44.2903 148.512L44.3274 148.124L47.1742 118.318V118.316C47.3648 116.317 48.2454 114.448 49.6627 113.031L113.607 49.0853C115.024 47.668 116.893 46.7874 118.893 46.5968L148.698 43.75Z" fill="#111111" stroke="#111111" stroke-width="2"/>
<path d="M158.898 27.0244C161.956 26.7323 164.528 29.3053 164.236 32.3625L159.127 85.8569C158.912 88.1077 157.921 90.2113 156.325 91.8078L92.3807 155.753C90.7842 157.349 88.6807 158.34 86.43 158.555L32.9368 163.666C29.8797 163.958 27.3068 161.384 27.5988 158.327L32.7089 104.833C32.9239 102.582 33.9143 100.478 35.5108 98.8819L99.4546 34.9365C101.051 33.34 103.155 32.3496 105.405 32.1345L158.898 27.0244Z" fill="#E7B400"/>
<path fill-rule="evenodd" clip-rule="evenodd" d="M156.964 85.6504L162.074 32.1559C162.237 30.457 160.804 29.0242 159.105 29.1865L105.612 34.2966C103.863 34.4638 102.229 35.2332 100.99 36.4723L37.0466 100.418C35.8075 101.657 35.0381 103.29 34.8709 105.039L29.761 158.534C29.5986 160.233 31.0314 161.665 32.7303 161.503L86.2234 156.393C87.9725 156.225 89.6058 155.457 90.8449 154.217L154.789 90.272C156.028 89.0329 156.797 87.3996 156.964 85.6504ZM164.236 32.3625C164.528 29.3053 161.956 26.7323 158.898 27.0244L105.405 32.1345C103.155 32.3496 101.051 33.34 99.4546 34.9365L35.5108 98.8819C33.9143 100.478 32.9239 102.582 32.7089 104.833L27.5988 158.327C27.3068 161.384 29.8797 163.958 32.9368 163.666L86.43 158.555C88.6807 158.34 90.7842 157.349 92.3807 155.753L156.325 91.8078C157.921 90.2113 158.912 88.1077 159.127 85.8569L164.236 32.3625Z" fill="#111111"/>
<path d="M309.339 207.636L308.962 207.531L308.606 207.69L291.22 215.453L283.97 199.214L283.964 199.203C283.503 198.197 283.474 197.003 284.012 195.92L307.903 147.784C308.795 145.984 310.285 144.554 312.116 143.736L394.69 106.868C396.52 106.051 398.58 105.896 400.515 106.433L452.302 120.778C453.469 121.101 454.338 121.92 454.778 122.935L454.784 122.946L462.034 139.185L444.648 146.948L444.291 147.107L444.117 147.457L430.806 174.277V174.278C429.914 176.076 428.424 177.508 426.594 178.324L344.02 215.194C342.189 216.011 340.129 216.165 338.194 215.629L309.339 207.636Z" fill="#111111" stroke="#111111" stroke-width="2"/>
<path d="M293.838 219.611C290.877 218.791 289.394 215.469 290.76 212.718L314.65 164.583C315.655 162.558 317.332 160.947 319.394 160.026L401.967 123.158C404.029 122.237 406.348 122.064 408.526 122.667L460.313 137.013C463.272 137.833 464.756 141.156 463.391 143.907L439.5 192.042C438.495 194.067 436.818 195.678 434.757 196.599L352.183 233.467C350.121 234.387 347.803 234.561 345.623 233.957L293.838 219.611Z" fill="#E7B400"/>
<path fill-rule="evenodd" clip-rule="evenodd" d="M316.595 165.549L292.705 213.684C291.946 215.213 292.772 217.062 294.418 217.518L346.203 231.864C347.897 232.333 349.697 232.198 351.298 231.483L433.871 194.614C435.471 193.9 436.773 192.65 437.554 191.076L461.445 142.94C462.204 141.412 461.377 139.562 459.733 139.107L407.946 124.761C406.253 124.292 404.453 124.426 402.853 125.141L320.279 162.009C318.679 162.724 317.376 163.974 316.595 165.549ZM290.76 212.718C289.394 215.469 290.877 218.791 293.838 219.611L345.623 233.957C347.803 234.561 350.121 234.387 352.183 233.467L434.757 196.599C436.818 195.678 438.495 194.067 439.5 192.042L463.391 143.907C464.756 141.156 463.272 137.833 460.313 137.013L408.526 122.667C406.348 122.064 404.029 122.237 401.967 123.158L319.394 160.026C317.332 160.947 315.655 162.558 314.65 164.583L290.76 212.718Z" fill="#111111"/>
<path d="M334.254 437.842L333.866 437.888L333.597 438.171L320.467 451.96L307.588 439.695L307.579 439.687C306.77 438.932 306.289 437.838 306.375 436.632L310.175 383.029V383.028C310.317 381.025 311.151 379.135 312.534 377.684L374.896 312.192C376.277 310.742 378.124 309.815 380.118 309.576H380.119L433.471 303.159C434.672 303.015 435.787 303.441 436.581 304.212L436.59 304.221L449.468 316.485L436.339 330.274L436.07 330.557L436.041 330.947L433.925 360.814C433.783 362.817 432.948 364.707 431.566 366.159L369.204 431.649C367.823 433.101 365.975 434.026 363.982 434.266L334.254 437.842Z" fill="#111111" stroke="#111111" stroke-width="2"/>
<path d="M324.463 454.811C321.413 455.177 318.779 452.669 318.996 449.605L322.796 396.001C322.955 393.747 323.895 391.619 325.452 389.984L387.813 324.494C389.369 322.859 391.448 321.818 393.693 321.547L447.045 315.13C450.095 314.764 452.729 317.273 452.512 320.336L448.712 373.94C448.551 376.196 447.613 378.322 446.056 379.958L383.695 445.448C382.138 447.082 380.059 448.124 377.814 448.394L324.463 454.811Z" fill="#E7B400"/>
<path fill-rule="evenodd" clip-rule="evenodd" d="M324.962 396.155L321.162 449.758C321.042 451.461 322.509 452.859 324.203 452.655L377.555 446.237C379.3 446.028 380.914 445.219 382.122 443.95L444.483 378.46C445.692 377.191 446.421 375.539 446.546 373.786L450.345 320.183C450.466 318.48 448.999 317.084 447.305 317.287L393.952 323.704C392.208 323.914 390.594 324.723 389.385 325.992L327.025 391.482C325.816 392.751 325.087 394.403 324.962 396.155ZM318.996 449.605C318.779 452.669 321.413 455.177 324.463 454.811L377.814 448.394C380.059 448.124 382.138 447.082 383.695 445.448L446.056 379.958C447.613 378.322 448.551 376.196 448.712 373.94L452.512 320.336C452.729 317.273 450.095 314.764 447.045 315.13L393.693 321.547C391.448 321.818 389.369 322.859 387.813 324.494L325.452 389.984C323.895 391.619 322.955 393.747 322.796 396.001L318.996 449.605Z" fill="#111111"/>
<path d="M497.329 517.103L497.102 516.785L496.725 516.684L478.334 511.756L482.936 494.577L482.94 494.565C483.214 493.494 483.945 492.548 485.045 492.046L533.927 469.724C535.754 468.889 537.813 468.718 539.748 469.237L627.098 492.642C629.034 493.161 630.731 494.34 631.896 495.975V495.976L663.068 539.749C663.77 540.734 663.929 541.917 663.631 542.984L663.628 542.995L659.026 560.173L640.634 555.246L640.257 555.145L639.902 555.307L612.666 567.744C610.839 568.579 608.78 568.75 606.845 568.232L519.495 544.826C517.558 544.308 515.862 543.129 514.697 541.493L497.329 517.103Z" fill="#111111" stroke="#111111" stroke-width="2"/>
<path d="M477.741 516.629C475.959 514.127 476.902 510.612 479.695 509.336L528.577 487.015C530.633 486.076 532.95 485.882 535.131 486.466L622.48 509.872C624.661 510.456 626.57 511.783 627.882 513.625L659.053 557.397C660.835 559.898 659.894 563.414 657.1 564.689L608.219 587.01C606.162 587.95 603.845 588.144 601.664 587.56L514.315 564.154C512.134 563.57 510.225 562.243 508.913 560.401L477.741 516.629Z" fill="#E7B400"/>
<path fill-rule="evenodd" clip-rule="evenodd" d="M529.478 488.991L480.598 511.313C479.045 512.021 478.52 513.979 479.51 515.369L510.682 559.141C511.702 560.573 513.184 561.602 514.877 562.056L602.226 585.462C603.918 585.915 605.718 585.765 607.316 585.035L656.197 562.713C657.75 562.004 658.275 560.047 657.284 558.657L626.112 514.885C625.093 513.453 623.61 512.424 621.917 511.97L534.569 488.564C532.876 488.11 531.077 488.261 529.478 488.991ZM479.695 509.336C476.902 510.612 475.959 514.127 477.741 516.629L508.913 560.401C510.225 562.243 512.134 563.57 514.315 564.154L601.664 587.56C603.845 588.144 606.162 587.95 608.219 587.01L657.1 564.689C659.894 563.414 660.835 559.898 659.053 557.397L627.882 513.625C626.57 511.783 624.661 510.456 622.48 509.872L535.131 486.466C532.95 485.882 530.633 486.076 528.577 487.015L479.695 509.336Z" fill="#111111"/>
<path d="M379.601 623.315L379.722 623.687L380.051 623.896L396.11 634.126L386.554 649.126L386.549 649.136C385.964 650.076 384.983 650.758 383.783 650.906L330.452 657.499C328.458 657.746 326.444 657.291 324.753 656.213L248.482 607.628C246.791 606.552 245.527 604.917 244.908 603.007L228.338 551.887C227.964 550.737 228.169 549.559 228.774 548.632L228.779 548.622L238.334 533.622L254.393 543.851L254.722 544.061L255.109 544.013L284.825 540.34C286.818 540.093 288.833 540.549 290.524 541.625L366.795 590.211C368.486 591.288 369.75 592.921 370.369 594.833L379.601 623.315Z" fill="#111111" stroke="#111111" stroke-width="2"/>
<path d="M398.13 629.655C399.077 632.578 397.123 635.647 394.075 636.022L340.744 642.615C338.501 642.892 336.232 642.381 334.328 641.168L258.057 592.582C256.154 591.369 254.731 589.531 254.034 587.379L237.464 536.26C236.517 533.339 238.472 530.27 241.519 529.893L294.85 523.301C297.094 523.023 299.362 523.535 301.266 524.748L377.537 573.333C379.442 574.546 380.863 576.386 381.561 578.536L398.13 629.655Z" fill="#E7B400"/>
<path fill-rule="evenodd" clip-rule="evenodd" d="M340.478 640.46L393.808 633.868C395.502 633.658 396.59 631.949 396.065 630.325L379.495 579.206C378.953 577.535 377.849 576.107 376.371 575.165L300.1 526.58C298.622 525.638 296.86 525.241 295.117 525.457L241.786 532.049C240.092 532.258 239.004 533.967 239.529 535.59L256.099 586.71C256.641 588.382 257.747 589.81 259.225 590.751L335.495 639.336C336.973 640.277 338.734 640.675 340.478 640.46ZM394.075 636.022C397.123 635.647 399.077 632.578 398.13 629.655L381.561 578.536C380.863 576.386 379.442 574.546 377.537 573.333L301.266 524.748C299.362 523.535 297.094 523.023 294.85 523.301L241.519 529.893C238.472 530.27 236.517 533.339 237.464 536.26L254.034 587.379C254.731 589.531 256.154 591.369 258.057 592.582L334.328 641.168C336.232 642.381 338.501 642.892 340.744 642.615L394.075 636.022Z" fill="#111111"/>
<path d="M94.3418 572.328L94.0941 572.629L94.0951 573.02L94.1452 592.061L76.3609 592.108H76.3494C75.2427 592.122 74.139 591.665 73.3669 590.734L73.3667 590.733L39.0457 549.383H39.0456C37.7626 547.839 37.0586 545.896 37.0534 543.892L36.8155 453.459C36.8102 451.455 37.5041 449.508 38.7789 447.957H38.779L72.8819 406.427H72.8822C73.6494 405.492 74.7507 405.028 75.8574 405.038H75.8689L93.6532 404.991L93.7033 424.031L93.7043 424.422L93.9536 424.722L113.077 447.761C114.36 449.306 115.065 451.249 115.069 453.253L115.308 543.686C115.312 545.69 114.618 547.636 113.344 549.188L113.343 549.189L94.3418 572.328Z" fill="#111111" stroke="#111111" stroke-width="2"/>
<path d="M98.9991 591.36C97.0501 593.732 93.4115 593.742 91.45 591.379L57.1292 550.03C55.685 548.29 54.8923 546.104 54.8863 543.846L54.6485 453.414C54.6426 451.156 55.4239 448.966 56.8588 447.219L90.9617 405.689C92.9107 403.316 96.5492 403.307 98.5107 405.67L132.831 447.019C134.276 448.759 135.069 450.945 135.074 453.203L135.312 543.635C135.318 545.893 134.536 548.082 133.102 549.83L98.9991 591.36Z" fill="#E7B400"/>
<path fill-rule="evenodd" clip-rule="evenodd" d="M58.8004 548.643L93.1212 589.992C94.2112 591.305 96.2374 591.3 97.3206 589.981L131.423 548.452C132.538 547.093 133.145 545.392 133.14 543.641L132.902 453.208C132.898 451.456 132.283 449.758 131.16 448.406L96.8395 407.057C95.7495 405.744 93.7233 405.749 92.6402 407.068L58.5372 448.597C57.4222 449.956 56.8159 451.657 56.8204 453.408L57.0582 543.841C57.0629 545.593 57.6781 547.291 58.8004 548.643ZM91.45 591.379C93.4115 593.742 97.0501 593.732 98.9991 591.36L133.102 549.83C134.536 548.082 135.318 545.893 135.312 543.635L135.074 453.203C135.069 450.945 134.276 448.759 132.831 447.019L98.5107 405.67C96.5492 403.307 92.9107 403.316 90.9617 405.689L56.8588 447.219C55.4239 448.966 54.6426 451.156 54.6485 453.414L54.8863 543.846C54.8923 546.104 55.685 548.29 57.1292 550.03L91.45 591.379Z" fill="#111111"/>
<path d="M225.177 725.198L225.559 725.278L225.905 725.095L242.743 716.206L251.045 731.935L251.05 731.944C251.578 732.917 251.684 734.108 251.22 735.224L230.544 784.825V784.826C229.772 786.68 228.378 788.206 226.606 789.141L146.634 831.358C144.862 832.294 142.816 832.583 140.849 832.175L88.232 821.265H88.2315C87.0473 821.019 86.1254 820.259 85.6191 819.275L85.6138 819.264L77.3115 803.537L94.1496 794.648L94.4949 794.465L94.6451 794.105L106.165 766.468C106.937 764.613 108.33 763.088 110.103 762.153L190.075 719.935C191.847 718.999 193.893 718.71 195.859 719.119H195.86L225.177 725.198Z" fill="#111111" stroke="#111111" stroke-width="2"/>
<path d="M239.853 712.23C242.86 712.854 244.558 716.072 243.377 718.907L222.702 768.508C221.832 770.595 220.265 772.312 218.268 773.367L138.296 815.583C136.3 816.637 133.998 816.962 131.783 816.504L79.1663 805.593C76.1591 804.969 74.4605 801.752 75.6421 798.916L96.317 749.315C97.187 747.228 98.7543 745.511 100.751 744.456L180.723 702.24C182.72 701.186 185.021 700.861 187.235 701.319L239.853 712.23Z" fill="#E7B400"/>
<path fill-rule="evenodd" clip-rule="evenodd" d="M220.697 767.673L241.372 718.071C242.029 716.496 241.083 714.704 239.412 714.358L186.794 703.447C185.074 703.09 183.287 703.343 181.737 704.161L101.765 746.377C100.215 747.195 98.9979 748.529 98.3217 750.15L77.6469 799.752C76.9902 801.327 77.9362 803.119 79.6072 803.466L132.224 814.376C133.945 814.734 135.733 814.48 137.283 813.663L217.254 771.446C218.803 770.628 220.021 769.294 220.697 767.673ZM243.377 718.907C244.558 716.072 242.86 712.854 239.853 712.23L187.235 701.319C185.021 700.861 182.72 701.186 180.723 702.24L100.751 744.456C98.7543 745.511 97.187 747.228 96.317 749.315L75.6421 798.916C74.4605 801.752 76.1591 804.969 79.1663 805.593L131.783 816.504C133.998 816.962 136.3 816.637 138.296 815.583L218.268 773.367C220.265 772.312 221.832 770.595 222.702 768.508L243.377 718.907Z" fill="#111111"/>
<path d="M514.139 712.918L514.318 712.571L514.237 712.189L510.243 693.573L527.632 689.842L527.643 689.84C528.722 689.596 529.897 689.815 530.845 690.566L572.988 723.908C574.563 725.155 575.655 726.909 576.075 728.869L595.042 817.29C595.462 819.25 595.186 821.297 594.261 823.08L569.501 870.773V870.774C568.944 871.847 567.962 872.529 566.877 872.75L566.866 872.752L549.477 876.482L545.484 857.865L545.402 857.484L545.096 857.242L521.615 838.663C520.039 837.418 518.948 835.663 518.527 833.704L499.561 745.282C499.14 743.321 499.416 741.274 500.342 739.492H500.343L514.139 712.918Z" fill="#111111" stroke="#111111" stroke-width="2"/>
<path d="M505.621 695.267C507.036 692.541 510.594 691.778 513.003 693.684L555.145 727.026C556.918 728.429 558.146 730.402 558.62 732.61L577.587 821.031C578.06 823.239 577.749 825.544 576.707 827.55L551.948 875.244C550.533 877.969 546.975 878.733 544.566 876.827L502.424 843.484C500.651 842.082 499.423 840.108 498.949 837.9L479.983 749.479C479.509 747.271 479.82 744.968 480.861 742.961L505.621 695.267Z" fill="#E7B400"/>
<path fill-rule="evenodd" clip-rule="evenodd" d="M553.797 728.729L511.655 695.386C510.317 694.328 508.335 694.753 507.549 696.267L482.789 743.961C481.98 745.521 481.739 747.31 482.106 749.024L501.072 837.445C501.44 839.158 502.394 840.691 503.772 841.781L545.914 875.124C547.252 876.183 549.233 875.758 550.02 874.243L574.779 826.549C575.589 824.99 575.831 823.201 575.462 821.487L556.496 733.066C556.129 731.353 555.175 729.819 553.797 728.729ZM513.003 693.684C510.594 691.778 507.036 692.541 505.621 695.267L480.861 742.961C479.82 744.968 479.509 747.271 479.983 749.479L498.949 837.9C499.423 840.108 500.651 842.082 502.424 843.484L544.566 876.827C546.975 878.733 550.533 877.969 551.948 875.244L576.707 827.55C577.749 825.544 578.06 823.239 577.587 821.031L558.62 732.61C558.146 730.402 556.918 728.429 555.145 727.026L513.003 693.684Z" fill="#111111"/>
<path d="M298.361 959.405L279.882 967.378L272.406 950.051C271.832 948.757 271.811 947.217 272.521 945.832L297.018 898.003C298.048 895.99 299.746 894.401 301.818 893.507L384.851 857.684C386.923 856.79 389.245 856.645 391.416 857.276L443.017 872.275C444.511 872.71 445.617 873.78 446.164 875.087L453.639 892.414L435.16 900.386L421.51 927.037C420.481 929.049 418.782 930.639 416.71 931.533L333.677 967.356C331.605 968.249 329.283 968.394 327.113 967.763L298.361 959.405Z" fill="#111111"/>
<path d="M283 970.141C280.051 969.284 278.609 965.943 280.009 963.209L304.506 915.38C305.537 913.367 307.233 911.778 309.306 910.884L392.34 875.061C394.413 874.167 396.732 874.023 398.904 874.654L450.505 889.652C453.454 890.51 454.896 893.851 453.495 896.584L428.999 944.414C427.968 946.426 426.271 948.015 424.198 948.91L341.165 984.733C339.092 985.626 336.771 985.771 334.601 985.14L283 970.141Z" fill="#E7B400"/>
<path fill-rule="evenodd" clip-rule="evenodd" d="M306.439 916.37L281.943 964.2C281.164 965.719 281.967 967.579 283.606 968.055L335.207 983.054C336.894 983.545 338.696 983.433 340.305 982.739L423.338 946.916C424.947 946.221 426.264 944.987 427.066 943.423L451.562 895.594C452.341 894.076 451.538 892.214 449.899 891.739L398.298 876.74C396.611 876.249 394.809 876.361 393.2 877.056L310.167 912.879C308.558 913.573 307.24 914.806 306.439 916.37ZM280.009 963.209C278.609 965.943 280.051 969.284 283 970.141L334.601 985.14C336.771 985.771 339.092 985.626 341.165 984.733L424.198 948.91C426.271 948.015 427.968 946.426 428.999 944.414L453.495 896.584C454.896 893.851 453.454 890.51 450.505 889.652L398.904 874.654C396.732 874.023 394.413 874.167 392.34 875.061L309.306 910.884C307.233 911.778 305.537 913.367 304.506 915.38L280.009 963.209Z" fill="#111111"/>
<path d="M123.447 1006.18L110.503 1021.59L96.0529 1009.46C94.9587 1008.56 94.2503 1007.19 94.2639 1005.63L94.7139 951.898C94.7324 949.638 95.5373 947.455 96.9887 945.727L155.145 876.475C156.596 874.746 158.606 873.576 160.829 873.167L213.678 863.435C215.207 863.153 216.676 863.614 217.752 864.538L232.203 876.672L219.259 892.086L219.008 922.027C218.99 924.287 218.185 926.47 216.734 928.198L158.578 997.45C157.126 999.179 155.116 1000.35 152.893 1000.76L123.447 1006.18Z" fill="#111111"/>
<path d="M114.532 1022.66C111.511 1023.21 108.725 1020.87 108.75 1017.8L109.201 964.067C109.219 961.806 110.024 959.624 111.476 957.895L169.631 888.645C171.083 886.915 173.093 885.746 175.316 885.337L228.165 875.605C231.185 875.049 233.972 877.388 233.945 880.459L233.496 934.196C233.476 936.457 232.673 938.639 231.221 940.367L173.065 1009.62C171.613 1011.35 169.603 1012.52 167.38 1012.93L114.532 1022.66Z" fill="#E7B400"/>
<path fill-rule="evenodd" clip-rule="evenodd" d="M111.373 964.086L110.922 1017.82C110.908 1019.53 112.46 1020.83 114.138 1020.52L166.987 1010.79C168.714 1010.47 170.275 1009.56 171.401 1008.22L229.557 938.971C230.684 937.629 231.309 935.934 231.324 934.177L231.774 880.442C231.788 878.735 230.236 877.432 228.558 877.741L175.71 887.473C173.981 887.791 172.422 888.699 171.295 890.041L113.139 959.292C112.012 960.634 111.387 962.328 111.373 964.086ZM108.75 1017.8C108.725 1020.87 111.511 1023.21 114.532 1022.66L167.38 1012.93C169.603 1012.52 171.613 1011.35 173.065 1009.62L231.221 940.367C232.673 938.639 233.476 936.457 233.496 934.196L233.945 880.459C233.972 877.388 231.185 875.049 228.165 875.605L175.316 885.337C173.093 885.746 171.083 886.915 169.631 888.645L111.476 957.895C110.024 959.624 109.219 961.806 109.201 964.067L108.75 1017.8Z" fill="#111111"/>
</g>
<defs>
<clipPath id="clip0_118_645">
<rect width="720" height="1086" fill="white"/>
</clipPath>
</defs>
</svg>
