<svg width="139" height="34" viewBox="0 0 139 34" fill="none" xmlns="http://www.w3.org/2000/svg">
<g clip-path="url(#clip0_118_1405)">
<path d="M42.4688 27.2096C42.4688 27.2667 42.515 27.313 42.5721 27.313H46.4742C46.5313 27.313 46.5776 27.2667 46.5776 27.2096V18.084H57.4817V27.2096C57.4817 27.2667 57.528 27.313 57.5851 27.313H61.4872C61.5443 27.313 61.5906 27.2667 61.5906 27.2096V5.29196C61.5906 5.23488 61.5443 5.1886 61.4872 5.1886H57.5851C57.528 5.1886 57.4817 5.23488 57.4817 5.29196V14.2912H46.5776V5.29196C46.5776 5.23488 46.5313 5.1886 46.4742 5.1886H42.5721C42.515 5.1886 42.4688 5.23488 42.4688 5.29196V27.2096Z" fill="#111111"/>
<path d="M73.6621 27.6923C79.0984 27.6923 82.3222 23.7099 82.3222 19.443C82.3222 15.1445 79.0984 11.1621 73.6621 11.1621C68.2258 11.1621 65.002 15.1445 65.002 19.443C65.002 23.7099 68.2258 27.6923 73.6621 27.6923ZM73.6621 14.4808C76.7279 14.4808 78.4346 16.8829 78.4346 19.443C78.4346 22.0031 76.7279 24.3736 73.6621 24.3736C70.5963 24.3736 68.8896 22.0031 68.8896 19.443C68.8896 16.8829 70.5963 14.4808 73.6621 14.4808Z" fill="#111111"/>
<path d="M89.6875 18.4948C89.6875 16.2192 91.173 14.6389 93.3535 14.6389C95.7243 14.6389 96.736 16.2824 96.736 18.5264V27.2096C96.736 27.2667 96.7821 27.3129 96.8392 27.3129H100.615C100.671 27.3129 100.718 27.2667 100.718 27.2096V17.8627C100.718 13.9435 98.6 11.1621 94.8075 11.1621C92.3427 11.1621 90.288 12.3948 89.5611 14.2279V11.6447C89.5611 11.5877 89.5147 11.5415 89.4577 11.5415H85.8085C85.7513 11.5415 85.7051 11.5877 85.7051 11.6447V27.2096C85.7051 27.2667 85.7513 27.3129 85.8085 27.3129H89.5841C89.6412 27.3129 89.6875 27.2667 89.6875 27.2096V18.4948Z" fill="#111111"/>
<path d="M120.445 20.7705C120.502 20.7705 120.548 20.7242 120.548 20.6671V19.4746C120.548 14.6073 117.229 11.1621 112.267 11.1621C107.399 11.1621 103.954 14.6389 103.954 19.4114C103.954 24.1207 107.083 27.6923 112.456 27.6923C116.155 27.6923 119.151 25.5832 120.271 22.838C120.299 22.7709 120.248 22.6984 120.176 22.6984H116.685C116.65 22.6984 116.617 22.7166 116.598 22.7463C115.83 23.9221 114.359 24.7529 112.456 24.7529C109.644 24.7529 108.126 23.1409 107.874 20.7705H120.445ZM112.33 14.0067C114.89 14.0067 116.502 15.7134 116.755 18.1471H107.842C108.158 15.587 109.865 14.0067 112.33 14.0067Z" fill="#111111"/>
<path d="M129.962 22.7933L125.816 11.6089C125.8 11.5684 125.762 11.5415 125.718 11.5415H121.835C121.763 11.5415 121.712 11.616 121.741 11.684L127.908 26.7125L125.089 33.777C125.061 33.8449 125.111 33.9188 125.185 33.9188H129.102C129.144 33.9188 129.183 33.8925 129.198 33.8528L131.796 27.155L138.154 11.6841C138.181 11.6161 138.131 11.5415 138.058 11.5415H134.144C134.1 11.5415 134.062 11.5686 134.047 11.6094L129.962 22.7933Z" fill="#111111"/>
<path d="M28.286 12.4939C28.3086 12.4833 28.3379 12.4713 28.3752 12.4602V22.9784C28.3752 23.7915 27.9414 24.5429 27.2371 24.9495L15.3257 31.8267C14.6215 32.2332 13.7538 32.2332 13.0496 31.8267L1.13809 24.9495C0.433835 24.5429 0 23.7915 0 22.9784V16.432C0.18358 16.5037 0.473391 16.7396 0.911518 17.5301C1.14435 17.9502 1.34845 18.3854 1.5608 18.816C1.78765 19.276 2.05693 19.8059 2.37804 20.2941C3.01911 21.269 4.10829 22.4294 5.92076 22.4294C7.94374 22.4294 9.02048 20.8476 9.58689 19.703C10.2264 18.4109 10.6068 17.0129 11.0612 15.6497C11.5264 14.2545 11.9814 13.108 12.5672 12.3135C12.8362 11.9486 13.1022 11.6977 13.3833 11.5367C13.6601 11.3781 13.9727 11.2944 14.3563 11.2944C15.3905 11.2944 16.0264 11.5911 16.5001 11.9769C17.0262 12.4055 17.4521 13.0249 17.9136 13.8475C18.4054 14.7242 18.8367 15.6426 19.4538 16.4416C20.1444 17.3357 21.1977 18.2115 22.7919 18.2115C24.5201 18.2115 25.5397 17.1162 26.1255 16.1886C26.6386 15.3764 26.9695 14.4722 27.4062 13.6204C27.7945 12.8632 28.0726 12.5933 28.286 12.4939Z" fill="#111111"/>
<path d="M28.3752 9.22418V10.2375C27.4724 10.3139 26.8067 10.7381 26.2941 11.3232C25.731 11.9658 25.3453 12.8122 25.0011 13.5673L24.9872 13.5976C24.6694 14.2949 24.387 14.908 24.03 15.3541C23.689 15.7803 23.311 16.0154 22.7919 16.0154C22.2104 16.0154 21.7758 15.7665 21.3751 15.32C20.9579 14.855 20.608 14.2102 20.2038 13.4597L20.1901 13.4341C19.6811 12.4888 19.0971 11.4042 18.2148 10.5633C17.3051 9.6964 16.0916 9.09829 14.3563 9.09829C12.5767 9.09829 11.3888 10.0712 10.5426 11.3832C9.71525 12.666 9.17815 14.3266 8.69221 15.8289L8.68201 15.8604C8.28082 17.1007 7.91654 18.2208 7.45706 19.0354C6.99761 19.8501 6.51595 20.2333 5.92076 20.2333C5.34055 20.2333 4.90266 19.9635 4.50434 19.4844C4.09208 18.9886 3.75887 18.3127 3.3931 17.5646L3.37848 17.5347C2.99838 16.7573 2.58123 15.904 2.01277 15.2648C1.50257 14.691 0.85565 14.2724 0 14.2052V9.22418C0 8.41096 0.433836 7.65954 1.13809 7.25294L13.0496 0.375872C13.7538 -0.0307271 14.6215 -0.0307267 15.3257 0.375872L27.2371 7.25294C27.9414 7.65954 28.3752 8.41097 28.3752 9.22418Z" fill="#E7B400"/>
</g>
<defs>
<clipPath id="clip0_118_1405">
<rect width="138.211" height="34" fill="white"/>
</clipPath>
</defs>
</svg>
