<svg width="40" height="40" viewBox="0 0 40 40" fill="none" xmlns="http://www.w3.org/2000/svg">
<g clip-path="url(#clip0_118_1393)">
<path fill-rule="evenodd" clip-rule="evenodd" d="M6.6 0.0146484H33.4C35.66 0.0146484 37.5 1.85465 37.5 4.13465V40.0146L33.2 36.2146L30.78 33.9746L28.22 31.5946L29.28 35.2946H6.6C4.34 35.2946 2.5 33.4546 2.5 31.1746V4.13465C2.5 1.85465 4.34 0.0146484 6.6 0.0146484ZM24.36 24.5146C24.96 25.2746 25.68 26.1346 25.68 26.1346C30.1 25.9946 31.8 23.0946 31.8 23.0946C31.8 16.6546 28.92 11.4347 28.92 11.4347C26.04 9.27465 23.3 9.33465 23.3 9.33465L23.02 9.65465C26.42 10.6946 28 12.1947 28 12.1947C25.92 11.0547 23.88 10.4946 21.98 10.2746C20.54 10.1146 19.16 10.1547 17.94 10.3147C17.8352 10.3147 17.7458 10.3299 17.6449 10.3471C17.6301 10.3496 17.6152 10.3521 17.6 10.3547C16.9 10.4146 15.2 10.6747 13.06 11.6147C12.32 11.9547 11.88 12.1947 11.88 12.1947C11.88 12.1947 13.54 10.6146 17.14 9.57465L16.94 9.33465C16.94 9.33465 14.2 9.27465 11.32 11.4347C11.32 11.4347 8.44 16.6546 8.44 23.0946C8.44 23.0946 10.12 25.9946 14.54 26.1346C14.54 26.1346 15.28 25.2346 15.88 24.4746C13.34 23.7146 12.38 22.1146 12.38 22.1146C12.38 22.1146 12.58 22.2546 12.94 22.4546C12.96 22.4746 12.98 22.4946 13.02 22.5146C13.05 22.5346 13.08 22.5496 13.11 22.5646C13.14 22.5796 13.17 22.5946 13.2 22.6146C13.7 22.8946 14.2 23.1146 14.66 23.2946C15.48 23.6146 16.46 23.9346 17.6 24.1546C19.1 24.4346 20.86 24.5346 22.78 24.1746C23.72 24.0146 24.68 23.7346 25.68 23.3146C26.38 23.0546 27.16 22.6746 27.98 22.1346C27.98 22.1346 26.98 23.7746 24.36 24.5146ZM14.3384 19.0169C14.3384 17.7969 15.2384 16.7969 16.3784 16.7969C17.5184 16.7969 18.4384 17.7969 18.4184 19.0169C18.4184 20.2369 17.5184 21.2369 16.3784 21.2369C15.2584 21.2369 14.3384 20.2369 14.3384 19.0169ZM21.6384 19.0169C21.6384 17.7969 22.5384 16.7969 23.6784 16.7969C24.8184 16.7969 25.7184 17.7969 25.7184 19.0169C25.7184 20.2369 24.8184 21.2369 23.6784 21.2369C22.5584 21.2369 21.6384 20.2369 21.6384 19.0169Z" fill="black"/>
</g>
<defs>
<clipPath id="clip0_118_1393">
<rect width="40" height="40" fill="white"/>
</clipPath>
</defs>
</svg>
