<svg width="67" height="75" viewBox="0 0 67 75" fill="none" xmlns="http://www.w3.org/2000/svg">
<g clip-path="url(#clip0_118_1357)">
<path d="M65.829 29.0581C65.8821 29.0334 65.9505 29.0054 66.0377 28.9794V53.5819C66.0377 55.4841 65.0229 57.2418 63.3757 58.1927L35.5139 74.2787C33.8667 75.2298 31.837 75.2298 30.1898 74.2787L2.32808 58.1927C0.680788 57.2418 -0.333984 55.4841 -0.333984 53.5819V38.2696C0.0954218 38.4374 0.773313 38.989 1.79813 40.8382C2.34275 41.8207 2.82013 42.8387 3.31684 43.846C3.84747 44.922 4.47733 46.1612 5.22841 47.3033C6.72794 49.5835 9.27561 52.2979 13.5151 52.2979C18.247 52.2979 20.7656 48.5979 22.0906 45.9209C23.5865 42.8986 24.4761 39.6283 25.5392 36.4396C26.627 33.1761 27.6913 30.4944 29.0615 28.6362C29.691 27.7826 30.313 27.1958 30.9705 26.8191C31.618 26.4481 32.3492 26.2524 33.2465 26.2524C35.6654 26.2524 37.1531 26.9464 38.261 27.8488C39.4915 28.8512 40.4879 30.3002 41.5673 32.2243C42.7176 34.2749 43.7265 36.423 45.17 38.292C46.7851 40.3832 49.249 42.4321 52.9779 42.4321C57.0204 42.4321 59.4053 39.8699 60.7756 37.7004C61.9755 35.8004 62.7495 33.6854 63.7711 31.6931C64.6793 29.9221 65.3299 29.2908 65.829 29.0581Z" fill="#111111"/>
<path d="M66.0377 21.41V23.7802C63.9259 23.9591 62.3691 24.9512 61.1697 26.32C59.8528 27.8231 58.9504 29.8029 58.1453 31.569L58.113 31.64C57.3696 33.2708 56.7092 34.705 55.8739 35.7486C55.0763 36.7452 54.1921 37.2954 52.9779 37.2954C51.6178 37.2954 50.6011 36.713 49.6641 35.6688C48.6881 34.5811 47.8696 33.0727 46.9244 31.3173L46.8921 31.2575C45.7017 29.0464 44.3356 26.5094 42.2717 24.5424C40.1438 22.5147 37.3054 21.1158 33.2465 21.1158C29.0839 21.1158 26.3052 23.3914 24.3259 26.4604C22.3907 29.4609 21.1343 33.3451 19.9978 36.8591L19.9739 36.9329C19.0355 39.8339 18.1834 42.454 17.1086 44.3595C16.0339 46.2649 14.9073 47.1611 13.5151 47.1611C12.158 47.1611 11.1337 46.5303 10.202 45.4096C9.2377 44.25 8.45829 42.6688 7.60273 40.9191L7.56853 40.8491C6.67943 39.0305 5.7037 37.0349 4.37402 35.5395C3.18065 34.1973 1.66744 33.2182 -0.333984 33.0612V21.41C-0.333984 19.508 0.680791 17.7503 2.32808 16.7992L30.1898 0.713298C31.837 -0.237767 33.8667 -0.237766 35.5139 0.713299L63.3757 16.7992C65.0229 17.7503 66.0377 19.508 66.0377 21.41Z" fill="#E7B400"/>
</g>
<defs>
<clipPath id="clip0_118_1357">
<rect width="66.3717" height="75" fill="white" transform="translate(-0.333984)"/>
</clipPath>
</defs>
</svg>
