<svg width="40" height="40" viewBox="0 0 40 40" fill="none" xmlns="http://www.w3.org/2000/svg">
<g clip-path="url(#clip0_118_1398)">
<path fill-rule="evenodd" clip-rule="evenodd" d="M30.6406 35.475C31.1774 35.855 31.869 35.95 32.4856 35.7166C33.1024 35.4816 33.5556 34.955 33.6924 34.3166C35.1406 27.51 38.654 10.2816 39.9724 4.09001C40.0724 3.62335 39.9056 3.13835 39.539 2.82667C39.1724 2.51501 38.664 2.42501 38.2106 2.59335C31.2224 5.18001 9.70066 13.255 0.903996 16.51C0.345663 16.7166 -0.0176702 17.2534 0.000663091 17.8416C0.0206631 18.4316 0.41733 18.9434 0.988996 19.115C4.934 20.295 10.1123 21.9366 10.1123 21.9366C10.1123 21.9366 12.5324 29.245 13.794 32.9616C13.9524 33.4284 14.3174 33.795 14.799 33.9216C15.279 34.0466 15.7924 33.915 16.1506 33.5766C18.1774 31.6634 21.3106 28.705 21.3106 28.705C21.3106 28.705 27.264 33.07 30.6406 35.475ZM12.2907 21.0134L15.089 30.2434L15.7106 24.3984C15.7106 24.3984 26.5224 14.6466 32.6856 9.08835C32.8656 8.92501 32.8906 8.65167 32.7406 8.46001C32.5924 8.26835 32.319 8.22335 32.114 8.35335C24.9706 12.915 12.2907 21.0134 12.2907 21.0134Z" fill="#1A1919"/>
</g>
<defs>
<clipPath id="clip0_118_1398">
<rect width="40" height="40" fill="white"/>
</clipPath>
</defs>
</svg>
