<svg width="40" height="40" viewBox="0 0 40 40" fill="none" xmlns="http://www.w3.org/2000/svg">
<path d="M40 7.61181C38.5284 8.26447 36.9466 8.70539 35.2868 8.90374C36.981 7.88836 38.2824 6.28051 38.895 4.36452C37.3092 5.30492 35.553 5.98756 33.6836 6.35549C32.1867 4.76084 30.054 3.76465 27.6936 3.76465C23.1616 3.76465 19.487 7.43805 19.487 11.9691C19.487 12.6121 19.5596 13.2384 19.6996 13.8389C12.8791 13.4967 6.83235 10.2302 2.78474 5.26632C2.07834 6.47806 1.67354 7.88736 1.67354 9.39104C1.67354 12.2376 3.12234 14.7489 5.32434 16.2201C3.97914 16.1776 2.71374 15.8085 1.60734 15.194C1.6064 15.2281 1.6064 15.2626 1.6064 15.2971C1.6064 19.2723 4.43521 22.5883 8.18941 23.3424C7.50081 23.53 6.77581 23.6301 6.02741 23.6301C5.49861 23.6301 4.98461 23.5786 4.48341 23.483C5.52781 26.7425 8.55841 29.1146 12.1496 29.1806C9.34101 31.3813 5.80261 32.693 1.9576 32.693C1.2952 32.693 0.642003 32.654 0 32.5782C3.63181 34.9064 7.94541 36.2646 12.5799 36.2646C27.6745 36.2646 35.929 23.7628 35.929 12.9202C35.929 12.5645 35.921 12.2108 35.9053 11.8587C37.5085 10.7021 38.8996 9.25726 39.9999 7.61181H40Z" fill="#1A1919"/>
</svg>
